# This file uses centimeters as units for non-parametric coordinates.

mtllib JamJar_1.mtl
g default
v 2.919781 1.053596 -2.121346
v 1.115257 1.053596 -3.432410
v -1.115257 1.053596 -3.432408
v -2.919781 1.053596 -2.121345
v -3.609048 1.053596 0.000000
v -2.919781 1.053596 2.121346
v -1.115257 1.053596 3.432409
v 1.115257 1.053596 3.432409
v 2.919781 1.053596 2.121345
v 3.609047 1.053596 0.000000
v 2.856546 6.990641 -2.075402
v 1.091103 6.990641 -3.358071
v -1.091104 6.990641 -3.358070
v -2.856546 6.990641 -2.075402
v -3.530885 6.990641 0.000000
v -2.856546 6.990641 2.075402
v -1.091103 6.990641 3.358071
v 1.091103 6.990641 3.358070
v 2.856545 6.990641 2.075402
v 3.530884 6.990641 0.000000
v 2.532389 0.591325 -1.839888
v 0.967286 0.591325 -2.977001
v 0.000000 0.591325 0.000000
v -0.967287 0.591325 -2.977001
v -2.532390 0.591325 -1.839888
v -3.130204 0.591325 0.000000
v -2.532389 0.591325 1.839888
v -0.967286 0.591325 2.977001
v 0.967287 0.591325 2.977001
v 2.532389 0.591325 1.839888
v 3.130204 0.591325 0.000000
v 2.612913 8.489775 -1.898393
v 0.998044 8.489775 -3.071664
v -0.998045 8.489775 -3.071664
v -2.612914 8.489775 -1.898393
v -3.229739 8.489775 0.000000
v -2.612913 8.489775 1.898393
v -0.998044 8.489775 3.071664
v 0.998044 8.489775 3.071664
v 2.612913 8.489775 1.898393
v 3.229738 8.489775 0.000000
v 2.320765 8.976092 -1.686134
v 0.886453 8.976092 -2.728223
v -0.886454 8.976092 -2.728223
v -2.320765 8.976092 -1.686134
v -2.868623 8.976092 0.000000
v -2.320765 8.976092 1.686134
v -0.886453 8.976092 2.728222
v 0.886453 8.976092 2.728222
v 2.320764 8.976092 1.686134
v 2.868623 8.976092 -0.000000
v 2.713075 8.976092 -1.971165
v 1.036302 8.976092 -3.189411
v -1.036303 8.976092 -3.189411
v -2.713075 8.976092 -1.971164
v -3.353545 8.976092 0.000000
v -2.713075 8.976092 1.971164
v -1.036302 8.976092 3.189411
v 1.036303 8.976092 3.189410
v 2.713074 8.976092 1.971164
v 3.353545 8.976092 0.000000
v 2.394030 9.501020 -1.739365
v 0.914438 9.501020 -2.814351
v -0.914438 9.501020 -2.814351
v -2.394030 9.501020 -1.739364
v -2.959183 9.501020 0.000000
v -2.394029 9.501020 1.739364
v -0.914438 9.501020 2.814350
v 0.914438 9.501020 2.814350
v 2.394029 9.501020 1.739364
v 2.959183 9.501020 -0.000000
v 2.394030 10.267750 -1.739365
v 0.914438 10.267750 -2.814351
v -0.914438 10.267750 -2.814351
v -2.394030 10.267750 -1.739364
v -2.959183 10.267750 0.000000
v -2.394029 10.267750 1.739364
v -0.914438 10.267750 2.814350
v 0.914438 10.267750 2.814350
v 2.394029 10.267750 1.739364
v 2.959183 10.267750 -0.000000
v 2.200480 10.484081 -1.598742
v 0.840508 10.484082 -2.586819
v -0.000000 10.484082 -0.000000
v -0.840509 10.484081 -2.586819
v -2.200480 10.484082 -1.598742
v -2.719942 10.484083 0.000000
v -2.200480 10.484083 1.598742
v -0.840508 10.484082 2.586819
v 0.840509 10.484082 2.586819
v 2.200479 10.484083 1.598742
v 2.719942 10.484082 -0.000000
v 2.713075 9.369801 -1.971165
v 2.601453 9.501020 -1.890067
v 1.036302 9.369801 -3.189411
v 0.993666 9.501020 -3.058192
v -1.036303 9.369801 -3.189411
v -0.993667 9.501020 -3.058192
v -2.713075 9.369801 -1.971164
v -2.601454 9.501020 -1.890066
v -3.353545 9.369801 0.000000
v -3.215573 9.501020 0.000000
v -2.713075 9.369801 1.971164
v -2.601453 9.501020 1.890067
v -1.036302 9.369801 3.189411
v -0.993667 9.501020 3.058192
v 1.036303 9.369801 3.189410
v 0.993667 9.501020 3.058191
v 2.713074 9.369801 1.971164
v 2.601453 9.501020 1.890066
v 3.353545 9.369801 0.000000
v 3.215573 9.501020 -0.000000
v 3.041611 4.935932 2.209860
v 1.161792 4.935932 3.575628
v -1.161792 4.935932 3.575629
v -3.041611 4.935932 2.209860
v -3.759638 4.935932 0.000000
v -3.041611 4.935932 -2.209860
v -1.161792 4.935932 -3.575627
v 1.161791 4.935932 -3.575629
v 3.041611 4.935932 -2.209860
v 3.759638 4.935932 0.000000
vt 0.626409 0.064409
vt 0.548284 0.007647
vt 0.451716 0.007647
vt 0.373591 0.064409
vt 0.343750 0.156250
vt 0.373591 0.248091
vt 0.451716 0.304853
vt 0.548284 0.304853
vt 0.626409 0.248091
vt 0.656250 0.156250
vt 0.375000 0.312500
vt 0.400000 0.312500
vt 0.425000 0.312500
vt 0.450000 0.312500
vt 0.475000 0.312500
vt 0.500000 0.312500
vt 0.525000 0.312500
vt 0.550000 0.312500
vt 0.575000 0.312500
vt 0.600000 0.312500
vt 0.625000 0.312500
vt 0.375000 0.688440
vt 0.400000 0.688440
vt 0.425000 0.688440
vt 0.450000 0.688440
vt 0.475000 0.688440
vt 0.500000 0.688440
vt 0.525000 0.688440
vt 0.550000 0.688440
vt 0.575000 0.688440
vt 0.600000 0.688440
vt 0.625000 0.688440
vt 0.626409 0.751909
vt 0.548284 0.695147
vt 0.451716 0.695147
vt 0.373591 0.751909
vt 0.343750 0.843750
vt 0.373591 0.935591
vt 0.451716 0.992353
vt 0.548284 0.992353
vt 0.626409 0.935591
vt 0.656250 0.843750
vt 0.500000 0.150000
vt 0.500000 0.837500
vt 0.548284 0.007647
vt 0.626409 0.064409
vt 0.451716 0.007647
vt 0.373591 0.064409
vt 0.343750 0.156250
vt 0.373591 0.248091
vt 0.451716 0.304853
vt 0.548284 0.304853
vt 0.626409 0.248091
vt 0.656250 0.156250
vt 0.626409 0.935591
vt 0.548284 0.992353
vt 0.451716 0.992353
vt 0.373591 0.935591
vt 0.343750 0.843750
vt 0.373591 0.751909
vt 0.451716 0.695147
vt 0.548284 0.695147
vt 0.626409 0.751909
vt 0.656250 0.843750
vt 0.626409 0.935591
vt 0.548284 0.992353
vt 0.451716 0.992353
vt 0.373591 0.935591
vt 0.343750 0.843750
vt 0.373591 0.751909
vt 0.451716 0.695147
vt 0.548284 0.695147
vt 0.626409 0.751909
vt 0.656250 0.843750
vt 0.626409 0.935591
vt 0.548284 0.992353
vt 0.451716 0.992353
vt 0.373591 0.935591
vt 0.343750 0.843750
vt 0.373591 0.751909
vt 0.451716 0.695147
vt 0.548284 0.695147
vt 0.626409 0.751909
vt 0.656250 0.843750
vt 0.626409 0.935591
vt 0.548284 0.992353
vt 0.451716 0.992353
vt 0.373591 0.935591
vt 0.343750 0.843750
vt 0.373591 0.751909
vt 0.451716 0.695147
vt 0.548284 0.695147
vt 0.626409 0.751909
vt 0.656250 0.843750
vt 0.548284 0.992353
vt 0.626409 0.935591
vt 0.451716 0.992353
vt 0.548284 0.992353
vt 0.373591 0.935591
vt 0.451716 0.992353
vt 0.343750 0.843750
vt 0.373591 0.935591
vt 0.373591 0.751909
vt 0.343750 0.843750
vt 0.451716 0.695147
vt 0.373591 0.751909
vt 0.548284 0.695147
vt 0.451716 0.695147
vt 0.626409 0.751909
vt 0.548284 0.695147
vt 0.656250 0.843750
vt 0.626409 0.751909
vt 0.626409 0.935591
vt 0.656250 0.843750
vt 0.548284 0.992353
vt 0.626409 0.935591
vt 0.451716 0.992353
vt 0.548284 0.992353
vt 0.373591 0.935591
vt 0.451716 0.992353
vt 0.343750 0.843750
vt 0.373591 0.935591
vt 0.373591 0.751909
vt 0.343750 0.843750
vt 0.451716 0.695147
vt 0.373591 0.751909
vt 0.548284 0.695147
vt 0.451716 0.695147
vt 0.626409 0.751909
vt 0.548284 0.695147
vt 0.656250 0.843750
vt 0.626409 0.751909
vt 0.626409 0.935591
vt 0.656250 0.843750
vt 0.575000 0.506123
vt 0.550000 0.506123
vt 0.525000 0.506123
vt 0.500000 0.506123
vt 0.475000 0.506123
vt 0.450000 0.506123
vt 0.425000 0.506123
vt 0.400000 0.506123
vt 0.625000 0.506123
vt 0.375000 0.506123
vt 0.600000 0.506123
vn 0.802933 -0.122406 -0.583365
vn 0.306693 -0.122406 -0.943905
vn 0.308993 0.012318 -0.950984
vn 0.808956 0.012318 -0.587741
vn -0.306693 -0.122406 -0.943905
vn -0.308994 0.012318 -0.950984
vn -0.802933 -0.122406 -0.583365
vn -0.808956 0.012318 -0.587741
vn -0.992480 -0.122406 0.000000
vn -0.999924 0.012318 0.000000
vn -0.802933 -0.122406 0.583365
vn -0.808956 0.012318 0.587741
vn -0.306693 -0.122406 0.943905
vn -0.308993 0.012318 0.950984
vn 0.306693 -0.122406 0.943905
vn 0.308994 0.012318 0.950984
vn 0.802933 -0.122406 0.583365
vn 0.808956 0.012318 0.587741
vn 0.992480 -0.122406 0.000000
vn 0.999924 0.012318 0.000000
vn 0.091193 -0.955464 -0.280664
vn 0.238747 -0.955464 -0.173460
vn 0.000000 -1.000000 0.000000
vn -0.091193 -0.955464 -0.280664
vn -0.238747 -0.955464 -0.173460
vn -0.295107 -0.955464 0.000000
vn -0.238747 -0.955464 0.173460
vn -0.091193 -0.955464 0.280664
vn 0.091193 -0.955464 0.280664
vn 0.238747 -0.955464 0.173460
vn 0.295107 -0.955464 0.000000
vn 0.000000 1.000000 0.000000
vn 0.000000 1.000000 0.000000
vn 0.000000 1.000000 0.000000
vn -0.000000 1.000000 0.000000
vn 0.000000 1.000000 0.000000
vn 0.000000 1.000000 0.000000
vn 0.000000 1.000000 0.000000
vn 0.000000 1.000000 0.000000
vn -0.000000 1.000000 0.000000
vn -0.000000 1.000000 0.000000
vn 0.000000 1.000000 0.000000
vn 0.800512 0.144623 -0.581606
vn 0.305768 0.144623 -0.941058
vn 0.295269 0.294951 -0.908746
vn 0.773026 0.294951 -0.561636
vn -0.305768 0.144623 -0.941058
vn -0.295270 0.294951 -0.908746
vn -0.800512 0.144623 -0.581606
vn -0.773026 0.294951 -0.561636
vn -0.989487 0.144623 0.000000
vn -0.955512 0.294951 0.000000
vn -0.800512 0.144623 0.581606
vn -0.773026 0.294951 0.561636
vn -0.305768 0.144624 0.941058
vn -0.295269 0.294951 0.908746
vn 0.305768 0.144623 0.941058
vn 0.295270 0.294951 0.908746
vn 0.800512 0.144623 0.581606
vn 0.773026 0.294951 0.561636
vn 0.989487 0.144623 0.000000
vn 0.955512 0.294951 0.000000
vn 0.248097 0.596167 -0.763566
vn 0.649528 0.596167 -0.471910
vn -0.248098 0.596167 -0.763566
vn -0.649528 0.596167 -0.471910
vn -0.802861 0.596167 0.000000
vn -0.649528 0.596167 0.471909
vn -0.248097 0.596167 0.763566
vn 0.248098 0.596166 0.763566
vn 0.649528 0.596167 0.471910
vn 0.802861 0.596167 0.000000
vn 0.000000 -1.000000 0.000000
vn 0.000000 -1.000000 0.000000
vn 0.000000 -1.000000 0.000000
vn 0.000000 -1.000000 0.000000
vn 0.000000 -1.000000 0.000000
vn 0.000000 -1.000000 0.000000
vn 0.000000 -1.000000 0.000000
vn 0.000000 -1.000000 0.000000
vn 0.000000 -1.000000 -0.000000
vn 0.000000 -1.000000 -0.000000
vn 0.000000 -1.000000 -0.000000
vn 0.000000 -1.000000 -0.000000
vn 0.000000 -1.000000 0.000000
vn 0.000000 -1.000000 0.000000
vn 0.000000 -1.000000 0.000001
vn 0.000000 -1.000000 0.000001
vn 0.000000 -1.000000 0.000000
vn 0.000000 -1.000000 0.000000
vn 0.000000 -1.000000 0.000000
vn 0.000000 -1.000000 0.000000
vn 0.746257 0.386178 -0.542187
vn 0.285045 0.386178 -0.877278
vn 0.309017 0.000000 -0.951057
vn 0.809017 0.000000 -0.587785
vn -0.285045 0.386178 -0.877277
vn -0.309017 0.000000 -0.951056
vn -0.746257 0.386178 -0.542187
vn -0.809017 0.000000 -0.587785
vn -0.922424 0.386179 0.000000
vn -1.000000 -0.000000 0.000000
vn -0.746257 0.386179 0.542187
vn -0.809017 -0.000000 0.587785
vn -0.285045 0.386178 0.877278
vn -0.309017 0.000000 0.951057
vn 0.285045 0.386178 0.877278
vn 0.309017 0.000000 0.951056
vn 0.746257 0.386178 0.542187
vn 0.809017 0.000000 0.587785
vn 0.922424 0.386178 0.000000
vn 1.000000 0.000000 0.000000
vn 0.542607 0.741729 -0.394228
vn 0.207257 0.741728 -0.637875
vn 0.207257 0.741728 -0.637875
vn 0.542607 0.741729 -0.394228
vn -0.207258 0.741728 -0.637874
vn -0.207258 0.741728 -0.637874
vn -0.542608 0.741728 -0.394228
vn -0.542609 0.741728 -0.394228
vn -0.670702 0.741727 0.000001
vn -0.670702 0.741727 0.000001
vn -0.542609 0.741727 0.394228
vn -0.542609 0.741727 0.394228
vn -0.207258 0.741727 0.637875
vn -0.207258 0.741727 0.637875
vn 0.207258 0.741727 0.637875
vn 0.207258 0.741727 0.637875
vn 0.542609 0.741727 0.394228
vn 0.542609 0.741727 0.394228
vn 0.670701 0.741728 0.000000
vn 0.670701 0.741728 0.000000
vn 0.557535 0.724618 -0.405073
vn 0.557535 0.724618 -0.405073
vn 0.689151 0.724617 0.000000
vn 0.689151 0.724617 0.000000
vn 0.212959 0.724617 -0.655422
vn 0.212959 0.724617 -0.655422
vn -0.212959 0.724617 -0.655423
vn -0.212959 0.724617 -0.655423
vn -0.557535 0.724618 -0.405073
vn -0.557535 0.724618 -0.405073
vn -0.689151 0.724617 0.000000
vn -0.689151 0.724617 -0.000000
vn -0.557536 0.724617 0.405073
vn -0.557536 0.724617 0.405073
vn -0.212959 0.724618 0.655421
vn -0.212959 0.724618 0.655421
vn 0.212960 0.724619 0.655420
vn 0.212960 0.724619 0.655420
vn 0.557536 0.724618 0.405071
vn 0.557536 0.724618 0.405071
vn 0.809017 0.000000 -0.587785
vn 0.309017 0.000000 -0.951057
vn 0.309017 0.000000 -0.951057
vn 0.809017 0.000000 -0.587785
vn -0.309017 -0.000000 -0.951056
vn -0.309017 -0.000000 -0.951056
vn -0.809017 -0.000000 -0.587785
vn -0.809017 -0.000000 -0.587785
vn -1.000000 0.000000 0.000000
vn -1.000000 0.000000 -0.000000
vn -0.809017 0.000000 0.587785
vn -0.809017 0.000000 0.587785
vn -0.309017 0.000000 0.951057
vn -0.309017 0.000000 0.951057
vn 0.309017 0.000000 0.951057
vn 0.309017 0.000000 0.951057
vn 0.809017 0.000000 0.587785
vn 0.809017 0.000000 0.587785
vn 1.000000 0.000000 -0.000000
vn 1.000000 0.000000 0.000000
vn 0.000000 1.000000 -0.000000
vn 0.000000 1.000000 0.000000
vn 0.000000 1.000000 0.000001
vn 0.000000 1.000000 0.000001
vn 0.000000 1.000000 0.000001
vn 0.000000 1.000000 -0.000000
vn 0.000000 1.000000 -0.000001
vn 0.000000 1.000000 0.000000
vn 0.000000 1.000000 0.000000
vn 0.000000 1.000000 0.000000
s 1
g pCylinder1
usemtl phong2SG
f 1/11/1 2/12/2 120/142/3 121/144/4
f 2/12/2 3/13/5 119/141/6 120/142/3
f 3/13/5 4/14/7 118/140/8 119/141/6
f 4/14/7 5/15/9 117/139/10 118/140/8
f 5/15/9 6/16/11 116/138/12 117/139/10
f 6/16/11 7/17/13 115/137/14 116/138/12
f 7/17/13 8/18/15 114/136/16 115/137/14
f 8/18/15 9/19/17 113/135/18 114/136/16
f 9/19/17 10/20/19 122/145/20 113/135/18
f 10/20/19 1/21/1 121/143/4 122/145/20
f 22/45/21 21/46/22 23/43/23
f 24/47/24 22/45/21 23/43/23
f 25/48/25 24/47/24 23/43/23
f 26/49/26 25/48/25 23/43/23
f 27/50/27 26/49/26 23/43/23
f 28/51/28 27/50/27 23/43/23
f 29/52/29 28/51/28 23/43/23
f 30/53/30 29/52/29 23/43/23
f 31/54/31 30/53/30 23/43/23
f 21/46/22 31/54/31 23/43/23
s 2
usemtl phong3SG
f 82/85/32 83/86/33 84/44/34
f 83/86/33 85/87/35 84/44/34
f 85/87/35 86/88/36 84/44/34
f 86/88/36 87/89/37 84/44/34
f 87/89/37 88/90/38 84/44/34
f 88/90/38 89/91/39 84/44/34
f 89/91/39 90/92/40 84/44/34
f 90/92/40 91/93/41 84/44/34
f 91/93/41 92/94/42 84/44/34
f 92/94/42 82/85/32 84/44/34
s 1
usemtl phong2SG
f 2/2/2 1/1/1 21/46/22 22/45/21
f 3/3/5 2/2/2 22/45/21 24/47/24
f 4/4/7 3/3/5 24/47/24 25/48/25
f 5/5/9 4/4/7 25/48/25 26/49/26
f 6/6/11 5/5/9 26/49/26 27/50/27
f 7/7/13 6/6/11 27/50/27 28/51/28
f 8/8/15 7/7/13 28/51/28 29/52/29
f 9/9/17 8/8/15 29/52/29 30/53/30
f 10/10/19 9/9/17 30/53/30 31/54/31
f 1/1/1 10/10/19 31/54/31 21/46/22
f 11/41/43 12/40/44 33/56/45 32/55/46
f 12/40/44 13/39/47 34/57/48 33/56/45
f 13/39/47 14/38/49 35/58/50 34/57/48
f 14/38/49 15/37/51 36/59/52 35/58/50
f 15/37/51 16/36/53 37/60/54 36/59/52
f 16/36/53 17/35/55 38/61/56 37/60/54
f 17/35/55 18/34/57 39/62/58 38/61/56
f 18/34/57 19/33/59 40/63/60 39/62/58
f 19/33/59 20/42/61 41/64/62 40/63/60
f 20/42/61 11/41/43 32/55/46 41/64/62
f 32/55/46 33/56/45 43/66/63 42/65/64
f 33/56/45 34/57/48 44/67/65 43/66/63
f 34/57/48 35/58/50 45/68/66 44/67/65
f 35/58/50 36/59/52 46/69/67 45/68/66
f 36/59/52 37/60/54 47/70/68 46/69/67
f 37/60/54 38/61/56 48/71/69 47/70/68
f 38/61/56 39/62/58 49/72/70 48/71/69
f 39/62/58 40/63/60 50/73/71 49/72/70
f 40/63/60 41/64/62 51/74/72 50/73/71
f 41/64/62 32/55/46 42/65/64 51/74/72
s 3
usemtl phong3SG
f 42/65/73 43/66/74 53/95/75 52/113/76
f 43/66/74 44/67/77 54/97/78 53/95/75
f 44/67/77 45/68/79 55/99/80 54/97/78
f 45/68/79 46/69/81 56/101/82 55/99/80
f 46/69/81 47/70/83 57/103/84 56/101/82
f 47/70/83 48/71/85 58/105/86 57/103/84
f 48/71/85 49/72/87 59/107/88 58/105/86
f 49/72/87 50/73/89 60/109/90 59/107/88
f 50/73/89 51/74/91 61/111/92 60/109/90
f 51/74/91 42/65/73 52/113/76 61/111/92
s 4
f 62/116/93 63/118/94 73/76/95 72/75/96
f 63/118/94 64/120/97 74/77/98 73/76/95
f 64/120/97 65/122/99 75/78/100 74/77/98
f 65/122/99 66/124/101 76/79/102 75/78/100
f 66/124/101 67/126/103 77/80/104 76/79/102
f 67/126/103 68/128/105 78/81/106 77/80/104
f 68/128/105 69/130/107 79/82/108 78/81/106
f 69/130/107 70/132/109 80/83/110 79/82/108
f 70/132/109 71/134/111 81/84/112 80/83/110
f 71/134/111 62/116/93 72/75/96 81/84/112
s 5
f 72/75/113 73/76/114 83/86/115 82/85/116
f 73/76/114 74/77/117 85/87/118 83/86/115
f 74/77/117 75/78/119 86/88/120 85/87/118
f 75/78/119 76/79/121 87/89/122 86/88/120
f 76/79/121 77/80/123 88/90/124 87/89/122
f 77/80/123 78/81/125 89/91/126 88/90/124
f 78/81/125 79/82/127 90/92/128 89/91/126
f 79/82/127 80/83/129 91/93/130 90/92/128
f 80/83/129 81/84/131 92/94/132 91/93/130
f 81/84/131 72/75/113 82/85/116 92/94/132
s 6
f 93/96/133 94/133/134 112/131/135 111/114/136
f 94/133/134 93/96/133 95/98/137 96/115/138
f 96/115/138 95/98/137 97/100/139 98/117/140
f 98/117/140 97/100/139 99/102/141 100/119/142
f 100/119/142 99/102/141 101/104/143 102/121/144
f 102/121/144 101/104/143 103/106/145 104/123/146
f 104/123/146 103/106/145 105/108/147 106/125/148
f 106/125/148 105/108/147 107/110/149 108/127/150
f 108/127/150 107/110/149 109/112/151 110/129/152
f 110/129/152 109/112/151 111/114/136 112/131/135
s 7
f 52/113/153 53/95/154 95/98/155 93/96/156
f 53/95/154 54/97/157 97/100/158 95/98/155
f 54/97/157 55/99/159 99/102/160 97/100/158
f 55/99/159 56/101/161 101/104/162 99/102/160
f 56/101/161 57/103/163 103/106/164 101/104/162
f 57/103/163 58/105/165 105/108/166 103/106/164
f 58/105/165 59/107/167 107/110/168 105/108/166
f 59/107/167 60/109/169 109/112/170 107/110/168
f 60/109/169 61/111/171 111/114/172 109/112/170
f 61/111/171 52/113/153 93/96/156 111/114/172
s 4
f 94/133/173 96/115/174 63/118/94 62/116/93
f 96/115/174 98/117/175 64/120/97 63/118/94
f 98/117/175 100/119/176 65/122/99 64/120/97
f 100/119/176 102/121/177 66/124/101 65/122/99
f 102/121/177 104/123/178 67/126/103 66/124/101
f 104/123/178 106/125/179 68/128/105 67/126/103
f 106/125/179 108/127/180 69/130/107 68/128/105
f 108/127/180 110/129/181 70/132/109 69/130/107
f 110/129/181 112/131/182 71/134/111 70/132/109
f 112/131/182 94/133/173 62/116/93 71/134/111
s 1
usemtl phong2SG
f 114/136/16 113/135/18 19/30/59 18/29/57
f 115/137/14 114/136/16 18/29/57 17/28/55
f 116/138/12 115/137/14 17/28/55 16/27/53
f 117/139/10 116/138/12 16/27/53 15/26/51
f 118/140/8 117/139/10 15/26/51 14/25/49
f 119/141/6 118/140/8 14/25/49 13/24/47
f 120/142/3 119/141/6 13/24/47 12/23/44
f 121/144/4 120/142/3 12/23/44 11/22/43
f 122/145/20 121/143/4 11/32/43 20/31/61
f 113/135/18 122/145/20 20/31/61 19/30/59
