# This file uses centimeters as units for non-parametric coordinates.

mtllib Rock_3.mtl
g default
v -3.793358 -0.050846 3.523171
v 3.793358 -0.050846 3.523171
v -2.549485 3.895802 2.437309
v 2.549485 3.895802 2.437309
v -2.549485 3.895802 -2.013929
v 2.549485 3.895802 -2.013929
v -3.793358 -0.050846 -3.099791
v 3.793358 -0.050846 -3.099791
v 0.246383 3.895802 -2.628186
v 0.366592 -0.050846 -4.013739
v 0.366592 -0.050846 4.437119
v 0.246383 3.895802 3.051566
v -3.455611 3.895802 0.001840
v -5.141574 -0.050846 -0.100544
v 0.496884 -0.050846 -0.186719
v 5.141574 -0.050846 -0.100544
v 3.455611 3.895802 0.001840
v 0.333952 4.606106 -0.056077
v 3.498170 2.291514 -2.842101
v 0.338065 2.291514 -3.684929
v -3.498170 2.291514 -2.842101
v -4.741472 2.291514 -0.076247
v -3.498170 2.291514 3.265481
v 0.338065 2.291514 4.108309
v 3.498170 2.291514 3.265481
v 4.741472 2.291514 -0.076247
v -0.276304 -0.027223 -0.947837
v 3.925920 -0.027223 1.939994
v 0.825993 2.625224 -1.075816
v 3.650274 2.625224 0.865071
v 2.520327 2.625224 -3.541323
v 5.344607 2.625224 -1.600435
v 2.244681 -0.027223 -4.616245
v 6.446905 -0.027223 -1.728414
v 4.302750 2.625224 -2.817327
v 4.896733 -0.027223 -3.539018
v 1.679972 -0.027223 1.141848
v 2.140791 2.625224 0.328644
v 1.251142 2.625224 -2.769714
v 0.356272 -0.027223 -3.468175
v 3.512172 -0.027223 -1.369666
v 6.052029 -0.027223 0.446034
v 5.079215 2.625224 -0.139006
v 3.372197 3.102602 -1.359324
v 6.185314 1.547021 -1.698043
v 4.755773 1.547021 -3.367751
v 2.310095 1.547021 -4.361152
v 0.568636 1.547021 -3.302421
v -0.014714 1.547021 -0.978209
v 1.789330 1.547021 0.948863
v 3.860505 1.547021 1.684900
v 5.821167 1.547021 0.307197
v -6.796334 -0.063820 -1.058975
v -3.790723 -0.063820 1.006526
v -6.007924 1.833324 -1.150511
v -3.987877 1.833324 0.237696
v -4.796063 1.833324 -2.913947
v -2.776017 1.833324 -1.525741
v -4.993217 -0.063820 -3.682778
v -1.987606 -0.063820 -1.617277
v -3.521198 1.833324 -2.396114
v -3.096355 -0.063820 -2.912298
v -5.397121 -0.063820 0.435658
v -5.067524 1.833324 -0.145980
v -5.703839 1.833324 -2.362060
v -6.343889 -0.063820 -2.861629
v -4.086653 -0.063820 -1.360685
v -2.270039 -0.063820 -0.062017
v -2.965837 1.833324 -0.480464
v -4.186769 2.174765 -1.353287
v -2.174707 1.062147 -1.595554
v -3.197176 1.062147 -2.789801
v -4.946430 1.062147 -3.500324
v -6.191996 1.062147 -2.743074
v -6.609233 1.062147 -1.080698
v -5.318903 1.062147 0.297627
v -3.837510 1.062147 0.824073
v -2.435161 1.062147 -0.161321
vt 0.375000 0.000000
vt 0.625000 0.000000
vt 0.375000 0.250000
vt 0.625000 0.250000
vt 0.375000 0.500000
vt 0.625000 0.500000
vt 0.375000 0.750000
vt 0.625000 0.750000
vt 0.375000 1.000000
vt 0.625000 1.000000
vt 0.875000 0.000000
vt 0.875000 0.250000
vt 0.125000 0.000000
vt 0.125000 0.250000
vt 0.512080 0.500000
vt 0.512080 0.750000
vt 0.512080 0.000000
vt 0.512080 1.000000
vt 0.512080 0.250000
vt 0.238214 0.250000
vt 0.375000 0.386786
vt 0.238214 0.000000
vt 0.375000 0.863214
vt 0.512080 0.863214
vt 0.625000 0.863214
vt 0.761786 0.000000
vt 0.625000 0.386786
vt 0.761786 0.250000
vt 0.512080 0.386786
vt 0.625000 0.624255
vt 0.875000 0.125745
vt 0.512080 0.624255
vt 0.125000 0.125745
vt 0.375000 0.624255
vt 0.238214 0.125745
vt 0.375000 0.125745
vt 0.512080 0.125745
vt 0.625000 0.125745
vt 0.761786 0.125745
vt 0.375000 0.125745
vt 0.512080 0.125745
vt 0.512080 0.250000
vt 0.375000 0.250000
vt 0.512080 0.386786
vt 0.375000 0.386786
vt 0.375000 0.500000
vt 0.512080 0.500000
vt 0.512080 0.624255
vt 0.375000 0.624255
vt 0.375000 0.863214
vt 0.512080 0.863214
vt 0.512080 1.000000
vt 0.375000 1.000000
vt 0.625000 0.125745
vt 0.761786 0.125745
vt 0.761786 0.250000
vt 0.625000 0.250000
vt 0.238214 0.125745
vt 0.238214 0.250000
vt 0.625000 0.500000
vt 0.625000 0.624255
vt 0.625000 0.863214
vt 0.625000 1.000000
vt 0.625000 0.386786
vt 0.125000 0.125745
vt 0.125000 0.250000
vt 0.375000 0.750000
vt 0.512080 0.750000
vt 0.625000 0.750000
vt 0.875000 0.125745
vt 0.875000 0.250000
vt 0.125000 0.000000
vt 0.238214 0.000000
vt 0.375000 0.000000
vt 0.512080 0.000000
vt 0.625000 0.000000
vt 0.761786 0.000000
vt 0.875000 0.000000
vt 0.375000 0.125745
vt 0.512080 0.125745
vt 0.512080 0.250000
vt 0.375000 0.250000
vt 0.512080 0.386786
vt 0.375000 0.386786
vt 0.375000 0.500000
vt 0.512080 0.500000
vt 0.512080 0.624255
vt 0.375000 0.624255
vt 0.375000 0.863214
vt 0.512080 0.863214
vt 0.512080 1.000000
vt 0.375000 1.000000
vt 0.625000 0.125745
vt 0.761786 0.125745
vt 0.761786 0.250000
vt 0.625000 0.250000
vt 0.238214 0.125745
vt 0.238214 0.250000
vt 0.625000 0.500000
vt 0.625000 0.624255
vt 0.625000 0.863214
vt 0.625000 1.000000
vt 0.625000 0.386786
vt 0.125000 0.125745
vt 0.125000 0.250000
vt 0.375000 0.750000
vt 0.512080 0.750000
vt 0.625000 0.750000
vt 0.875000 0.125745
vt 0.875000 0.250000
vt 0.125000 0.000000
vt 0.238214 0.000000
vt 0.375000 0.000000
vt 0.512080 0.000000
vt 0.625000 0.000000
vt 0.761786 0.000000
vt 0.875000 0.000000
vn -0.603935 0.331486 0.724830
vn 0.001047 0.300668 0.953728
vn -0.004879 0.856480 0.516157
vn -0.334364 0.842865 0.421638
vn 0.002194 0.999997 -0.001233
vn -0.486291 0.873783 0.004968
vn -0.318419 0.823872 -0.468876
vn -0.005185 0.825589 -0.564249
vn 0.001047 0.300668 -0.953728
vn -0.551801 0.328780 -0.766433
vn 0.000000 -1.000000 0.000000
vn 0.000000 -1.000000 0.000000
vn 0.000000 -1.000000 0.000000
vn 0.000000 -1.000000 0.000000
vn 0.651908 0.335748 0.679918
vn 0.937822 0.347116 -0.000802
vn 0.530537 0.847647 0.005108
vn 0.378376 0.829729 0.410343
vn -0.937822 0.347116 -0.000802
vn 0.361677 0.812118 -0.457880
vn 0.601162 0.334650 -0.725681
vn 0.000000 -1.000000 -0.000000
vn 0.000000 -1.000000 -0.000000
vn 0.000000 -1.000000 -0.000000
vn 0.000000 -1.000000 -0.000000
vn 0.000000 -1.000000 0.000000
vn 0.630713 0.162952 -0.758714
vn 0.001354 0.139029 -0.990287
vn -0.578262 0.160866 -0.799834
vn -0.985721 0.168385 -0.001146
vn -0.632848 0.163024 0.756919
vn 0.001354 0.139029 0.990287
vn 0.683655 0.164380 0.711052
vn 0.985721 0.168385 -0.001146
vn -0.908256 0.331486 0.255320
vn -0.539300 0.300668 0.786610
vn -0.296357 0.856480 0.422628
vn -0.514370 0.842865 0.158120
vn 0.002507 0.999997 0.000226
vn -0.403591 0.873783 -0.271326
vn 0.003131 0.823872 -0.566768
vn 0.315300 0.825589 -0.467963
vn 0.541025 0.300668 -0.785424
vn -0.020683 0.328780 -0.944180
vn 0.000000 -1.000000 0.000000
vn 0.000000 -1.000000 0.000000
vn 0.000000 -1.000000 0.000000
vn 0.000000 -1.000000 0.000000
vn 0.152186 0.335748 0.929577
vn 0.773362 0.347116 0.530493
vn 0.434350 0.847646 0.304689
vn 0.079433 0.829729 0.552485
vn -0.772453 0.347116 -0.531814
vn 0.557406 0.812118 -0.172520
vn 0.906453 0.334650 -0.257592
vn 0.000000 -1.000000 0.000000
vn 0.000000 -1.000000 0.000000
vn 0.000000 -1.000000 0.000000
vn 0.000000 -1.000000 0.000000
vn 0.000000 -1.000000 0.000000
vn 0.949516 0.162952 -0.268079
vn 0.561984 0.139029 -0.815380
vn -0.023574 0.160866 -0.986695
vn -0.811734 0.168384 -0.559227
vn -0.950259 0.163023 0.265391
vn -0.559752 0.139029 0.816914
vn 0.160717 0.164380 0.973216
vn 0.813033 0.168384 0.557337
vn -0.908256 0.331486 0.255319
vn -0.539300 0.300668 0.786610
vn -0.296357 0.856480 0.422628
vn -0.514370 0.842865 0.158120
vn 0.002507 0.999997 0.000226
vn -0.403591 0.873783 -0.271326
vn 0.003131 0.823872 -0.566768
vn 0.315300 0.825589 -0.467963
vn 0.541025 0.300668 -0.785424
vn -0.020683 0.328780 -0.944180
vn 0.000000 -1.000000 0.000000
vn 0.000000 -1.000000 -0.000000
vn 0.000000 -1.000000 -0.000000
vn 0.000000 -1.000000 0.000000
vn 0.152187 0.335748 0.929577
vn 0.773362 0.347116 0.530493
vn 0.434350 0.847647 0.304689
vn 0.079433 0.829729 0.552485
vn -0.772453 0.347116 -0.531814
vn 0.557406 0.812118 -0.172520
vn 0.906453 0.334650 -0.257592
vn 0.000000 -1.000000 -0.000000
vn 0.000000 -1.000000 -0.000000
vn 0.000000 -1.000000 0.000000
vn 0.000000 -1.000000 0.000000
vn 0.000000 -1.000000 0.000000
vn 0.949516 0.162952 -0.268079
vn 0.561984 0.139029 -0.815380
vn -0.023574 0.160866 -0.986695
vn -0.811734 0.168384 -0.559227
vn -0.950259 0.163023 0.265391
vn -0.559752 0.139029 0.816914
vn 0.160717 0.164380 0.973216
vn 0.813033 0.168384 0.557337
s 1
g Rock_3
usemtl phong2SG
f 23/36/1 24/37/2 12/19/3 3/3/4
f 3/3/4 12/19/3 18/29/5 13/21/6
f 5/5/7 9/15/8 20/32/9 21/34/10
s 2
f 14/23/11 15/24/12 11/18/13 1/9/14
s 1
f 25/38/15 26/39/16 17/28/17 4/4/18
f 22/35/19 23/36/1 3/3/4 13/20/6
f 9/15/8 6/6/20 19/30/21 20/32/9
s 2
f 11/18/13 15/24/12 16/25/22 2/10/23
s 1
f 12/19/3 24/37/2 25/38/15 4/4/18
f 18/29/5 12/19/3 4/4/18 17/27/17
f 21/33/10 22/35/19 13/20/6 5/14/7
s 2
f 7/7/24 10/16/25 15/24/12 14/23/11
f 16/25/22 15/24/12 10/16/25 8/8/26
s 1
f 17/28/17 26/39/16 19/31/21 6/12/20
f 9/15/8 18/29/5 17/27/17 6/6/20
f 13/21/6 18/29/5 9/15/8 5/5/7
f 20/32/9 19/30/21 8/8/27 10/16/28
f 21/34/10 20/32/9 10/16/28 7/7/29
f 7/13/29 14/22/30 22/35/19 21/33/10
f 14/22/30 1/1/31 23/36/1 22/35/19
f 1/1/31 11/17/32 24/37/2 23/36/1
f 25/38/15 24/37/2 11/17/32 2/2/33
f 2/2/33 16/26/34 26/39/16 25/38/15
f 19/31/21 26/39/16 16/26/34 8/11/27
s 4
f 49/40/35 50/41/36 38/42/37 29/43/38
f 29/43/38 38/42/37 44/44/39 39/45/40
f 31/46/41 35/47/42 46/48/43 47/49/44
s 5
f 40/50/45 41/51/46 37/52/47 27/53/48
s 4
f 51/54/49 52/55/50 43/56/51 30/57/52
f 48/58/53 49/40/35 29/43/38 39/59/40
f 35/47/42 32/60/54 45/61/55 46/48/43
s 5
f 37/52/47 41/51/46 42/62/56 28/63/57
s 4
f 38/42/37 50/41/36 51/54/49 30/57/52
f 44/44/39 38/42/37 30/57/52 43/64/51
f 47/65/44 48/58/53 39/59/40 31/66/41
s 5
f 33/67/58 36/68/59 41/51/46 40/50/45
f 42/62/56 41/51/46 36/68/59 34/69/60
s 4
f 43/56/51 52/55/50 45/70/55 32/71/54
f 35/47/42 44/44/39 43/64/51 32/60/54
f 39/45/40 44/44/39 35/47/42 31/46/41
f 46/48/43 45/61/55 34/69/61 36/68/62
f 47/49/44 46/48/43 36/68/62 33/67/63
f 33/72/63 40/73/64 48/58/53 47/65/44
f 40/73/64 27/74/65 49/40/35 48/58/53
f 27/74/65 37/75/66 50/41/36 49/40/35
f 51/54/49 50/41/36 37/75/66 28/76/67
f 28/76/67 42/77/68 52/55/50 51/54/49
f 45/70/55 52/55/50 42/77/68 34/78/61
s 7
f 75/79/69 76/80/70 64/81/71 55/82/72
f 55/82/72 64/81/71 70/83/73 65/84/74
f 57/85/75 61/86/76 72/87/77 73/88/78
s 8
f 66/89/79 67/90/80 63/91/81 53/92/82
s 7
f 77/93/83 78/94/84 69/95/85 56/96/86
f 74/97/87 75/79/69 55/82/72 65/98/74
f 61/86/76 58/99/88 71/100/89 72/87/77
s 8
f 63/91/81 67/90/80 68/101/90 54/102/91
s 7
f 64/81/71 76/80/70 77/93/83 56/96/86
f 70/83/73 64/81/71 56/96/86 69/103/85
f 73/104/78 74/97/87 65/98/74 57/105/75
s 8
f 59/106/92 62/107/93 67/90/80 66/89/79
f 68/101/90 67/90/80 62/107/93 60/108/94
s 7
f 69/95/85 78/94/84 71/109/89 58/110/88
f 61/86/76 70/83/73 69/103/85 58/99/88
f 65/84/74 70/83/73 61/86/76 57/85/75
f 72/87/77 71/100/89 60/108/95 62/107/96
f 73/88/78 72/87/77 62/107/96 59/106/97
f 59/111/97 66/112/98 74/97/87 73/104/78
f 66/112/98 53/113/99 75/79/69 74/97/87
f 53/113/99 63/114/100 76/80/70 75/79/69
f 77/93/83 76/80/70 63/114/100 54/115/101
f 54/115/101 68/116/102 78/94/84 77/93/83
f 71/109/89 78/94/84 68/116/102 60/117/95
